<svg width="12" height="12" viewBox="0 0 12 12" fill="none" xmlns="http://www.w3.org/2000/svg">
<path fill-rule="evenodd" clip-rule="evenodd" d="M6 11C7.32608 11 8.59785 10.4732 9.53553 9.53553C10.4732 8.59785 11 7.32608 11 6C11 4.67392 10.4732 3.40215 9.53553 2.46447C8.59785 1.52678 7.32608 1 6 1C4.67392 1 3.40215 1.52678 2.46447 2.46447C1.52678 3.40215 1 4.67392 1 6C1 7.32608 1.52678 8.59785 2.46447 9.53553C3.40215 10.4732 4.67392 11 6 11ZM10.2426 10.2426C9.11742 11.3679 7.5913 12 6 12C4.4087 12 2.88258 11.3679 1.75736 10.2426C0.632141 9.11742 0 7.5913 0 6C0 4.4087 0.632141 2.88258 1.75736 1.75736C2.88258 0.632141 4.4087 0 6 0C7.5913 0 9.11742 0.632141 10.2426 1.75736C11.3679 2.88258 12 4.4087 12 6C12 7.5913 11.3679 9.11742 10.2426 10.2426Z" fill="#4FD1D9"/>
<path d="M8.22727 3.72753C8.22192 3.7327 8.21691 3.73822 8.21227 3.74403L5.60752 7.06278L4.03777 5.49228C3.93113 5.39292 3.7901 5.33882 3.64437 5.3414C3.49865 5.34397 3.35961 5.403 3.25655 5.50606C3.15349 5.60912 3.09446 5.74816 3.09188 5.89389C3.08931 6.03961 3.14341 6.18065 3.24277 6.28728L5.22727 8.27253C5.28073 8.32589 5.34439 8.36794 5.41445 8.39617C5.48452 8.42439 5.55955 8.43822 5.63507 8.43682C5.7106 8.43542 5.78507 8.41882 5.85404 8.38802C5.92301 8.35722 5.98507 8.31284 6.03652 8.25753L9.03052 4.51503C9.13246 4.40803 9.1882 4.2652 9.18568 4.11743C9.18317 3.96966 9.12259 3.82881 9.01706 3.72535C8.91152 3.62188 8.76951 3.56411 8.62171 3.56452C8.47392 3.56492 8.33223 3.62348 8.22727 3.72753Z" fill="#4FD1D9"/>
</svg>
